<mxfile host="app.diagrams.net" agent="Mozilla/5.0 (Windows NT 10.0; Win64; x64) AppleWebKit/537.36 (KHTML, like Gecko) Chrome/132.0.0.0 Safari/537.36" version="26.0.6">
  <diagram name="Page-1" id="-H_mtQnk-PTXWXPvYvuk">
    <mxGraphModel dx="1434" dy="756" grid="1" gridSize="10" guides="1" tooltips="1" connect="1" arrows="1" fold="1" page="1" pageScale="1" pageWidth="1169" pageHeight="827" math="0" shadow="0">
      <root>
        <mxCell id="0" />
        <mxCell id="1" parent="0" />
        <mxCell id="HpuJ5_qfLhVpuopJuwjr-148" value="" style="rounded=0;whiteSpace=wrap;html=1;" parent="1" vertex="1">
          <mxGeometry x="20" y="1424" width="410" height="166" as="geometry" />
        </mxCell>
        <mxCell id="HpuJ5_qfLhVpuopJuwjr-91" value="" style="rounded=0;whiteSpace=wrap;html=1;" parent="1" vertex="1">
          <mxGeometry x="825" y="535" width="120" height="130" as="geometry" />
        </mxCell>
        <mxCell id="HpuJ5_qfLhVpuopJuwjr-86" value="" style="rounded=0;whiteSpace=wrap;html=1;" parent="1" vertex="1">
          <mxGeometry x="525" y="325" width="295" height="155" as="geometry" />
        </mxCell>
        <mxCell id="HpuJ5_qfLhVpuopJuwjr-55" value="" style="rounded=0;whiteSpace=wrap;html=1;" parent="1" vertex="1">
          <mxGeometry x="515" y="765" width="460" height="325" as="geometry" />
        </mxCell>
        <mxCell id="HpuJ5_qfLhVpuopJuwjr-15" value="" style="rounded=0;whiteSpace=wrap;html=1;" parent="1" vertex="1">
          <mxGeometry x="685" y="340" width="120" height="120" as="geometry" />
        </mxCell>
        <mxCell id="HpuJ5_qfLhVpuopJuwjr-14" value="" style="rounded=0;whiteSpace=wrap;html=1;" parent="1" vertex="1">
          <mxGeometry x="540" y="340" width="120" height="120" as="geometry" />
        </mxCell>
        <mxCell id="zA23MoTUsTF4_91t8viU-3" value="pymongo-api" style="rounded=1;whiteSpace=wrap;html=1;" parent="1" vertex="1">
          <mxGeometry x="240" y="250" width="120" height="60" as="geometry" />
        </mxCell>
        <mxCell id="zA23MoTUsTF4_91t8viU-4" style="edgeStyle=orthogonalEdgeStyle;rounded=0;orthogonalLoop=1;jettySize=auto;html=1;exitX=1;exitY=0.5;exitDx=0;exitDy=0;entryX=0;entryY=0.5;entryDx=0;entryDy=0;entryPerimeter=0;" parent="1" source="zA23MoTUsTF4_91t8viU-3" edge="1">
          <mxGeometry relative="1" as="geometry">
            <mxPoint x="440" y="280" as="targetPoint" />
          </mxGeometry>
        </mxCell>
        <mxCell id="HpuJ5_qfLhVpuopJuwjr-16" style="edgeStyle=orthogonalEdgeStyle;rounded=0;orthogonalLoop=1;jettySize=auto;html=1;exitX=0.5;exitY=0;exitDx=0;exitDy=0;entryX=0;entryY=0.5;entryDx=0;entryDy=0;" parent="1" source="HpuJ5_qfLhVpuopJuwjr-1" target="HpuJ5_qfLhVpuopJuwjr-3" edge="1">
          <mxGeometry relative="1" as="geometry" />
        </mxCell>
        <mxCell id="HpuJ5_qfLhVpuopJuwjr-17" style="edgeStyle=orthogonalEdgeStyle;rounded=0;orthogonalLoop=1;jettySize=auto;html=1;exitX=0.5;exitY=1;exitDx=0;exitDy=0;entryX=0.5;entryY=0;entryDx=0;entryDy=0;" parent="1" source="HpuJ5_qfLhVpuopJuwjr-1" target="HpuJ5_qfLhVpuopJuwjr-14" edge="1">
          <mxGeometry relative="1" as="geometry" />
        </mxCell>
        <mxCell id="HpuJ5_qfLhVpuopJuwjr-18" style="edgeStyle=orthogonalEdgeStyle;rounded=0;orthogonalLoop=1;jettySize=auto;html=1;exitX=0.5;exitY=1;exitDx=0;exitDy=0;entryX=0.5;entryY=0;entryDx=0;entryDy=0;" parent="1" source="HpuJ5_qfLhVpuopJuwjr-1" target="HpuJ5_qfLhVpuopJuwjr-8" edge="1">
          <mxGeometry relative="1" as="geometry" />
        </mxCell>
        <mxCell id="HpuJ5_qfLhVpuopJuwjr-1" value="Router&lt;div&gt;mongoDB&lt;/div&gt;" style="rounded=1;whiteSpace=wrap;html=1;" parent="1" vertex="1">
          <mxGeometry x="440" y="265" width="110" height="55" as="geometry" />
        </mxCell>
        <mxCell id="HpuJ5_qfLhVpuopJuwjr-2" value="driver" style="text;html=1;align=center;verticalAlign=middle;whiteSpace=wrap;rounded=0;" parent="1" vertex="1">
          <mxGeometry x="370" y="260" width="60" height="30" as="geometry" />
        </mxCell>
        <mxCell id="HpuJ5_qfLhVpuopJuwjr-3" value="config server" style="rounded=1;whiteSpace=wrap;html=1;" parent="1" vertex="1">
          <mxGeometry x="600" y="200" width="90" height="30" as="geometry" />
        </mxCell>
        <mxCell id="HpuJ5_qfLhVpuopJuwjr-5" value="shard 1" style="text;html=1;align=center;verticalAlign=middle;whiteSpace=wrap;rounded=0;" parent="1" vertex="1">
          <mxGeometry x="570" y="340" width="60" height="30" as="geometry" />
        </mxCell>
        <mxCell id="HpuJ5_qfLhVpuopJuwjr-6" value="mongodb&lt;div&gt;primary&amp;nbsp;&lt;/div&gt;" style="shape=cylinder3;whiteSpace=wrap;html=1;boundedLbl=1;backgroundOutline=1;size=15;" parent="1" vertex="1">
          <mxGeometry x="565" y="370" width="70" height="80" as="geometry" />
        </mxCell>
        <mxCell id="HpuJ5_qfLhVpuopJuwjr-8" value="shard 2" style="text;html=1;align=center;verticalAlign=middle;whiteSpace=wrap;rounded=0;" parent="1" vertex="1">
          <mxGeometry x="715" y="340" width="60" height="30" as="geometry" />
        </mxCell>
        <mxCell id="HpuJ5_qfLhVpuopJuwjr-9" value="mongodb&lt;div&gt;primary&amp;nbsp;&lt;/div&gt;" style="shape=cylinder3;whiteSpace=wrap;html=1;boundedLbl=1;backgroundOutline=1;size=15;" parent="1" vertex="1">
          <mxGeometry x="710" y="370" width="70" height="80" as="geometry" />
        </mxCell>
        <mxCell id="HpuJ5_qfLhVpuopJuwjr-20" value="&lt;font style=&quot;font-size: 18px;&quot;&gt;&lt;b&gt;Задание 1.1&lt;/b&gt;&lt;/font&gt;" style="text;html=1;align=center;verticalAlign=middle;whiteSpace=wrap;rounded=0;" parent="1" vertex="1">
          <mxGeometry x="330" y="150" width="140" height="30" as="geometry" />
        </mxCell>
        <mxCell id="HpuJ5_qfLhVpuopJuwjr-22" value="" style="rounded=0;whiteSpace=wrap;html=1;" parent="1" vertex="1">
          <mxGeometry x="525" y="780" width="120" height="300" as="geometry" />
        </mxCell>
        <mxCell id="HpuJ5_qfLhVpuopJuwjr-23" value="pymongo-api" style="rounded=1;whiteSpace=wrap;html=1;" parent="1" vertex="1">
          <mxGeometry x="225" y="595" width="120" height="60" as="geometry" />
        </mxCell>
        <mxCell id="HpuJ5_qfLhVpuopJuwjr-24" style="edgeStyle=orthogonalEdgeStyle;rounded=0;orthogonalLoop=1;jettySize=auto;html=1;exitX=1;exitY=0.5;exitDx=0;exitDy=0;entryX=0;entryY=0.5;entryDx=0;entryDy=0;" parent="1" source="HpuJ5_qfLhVpuopJuwjr-23" target="HpuJ5_qfLhVpuopJuwjr-92" edge="1">
          <mxGeometry relative="1" as="geometry">
            <mxPoint x="425" y="625" as="targetPoint" />
          </mxGeometry>
        </mxCell>
        <mxCell id="HpuJ5_qfLhVpuopJuwjr-29" value="driver" style="text;html=1;align=center;verticalAlign=middle;whiteSpace=wrap;rounded=0;" parent="1" vertex="1">
          <mxGeometry x="360" y="595" width="65" height="30" as="geometry" />
        </mxCell>
        <mxCell id="HpuJ5_qfLhVpuopJuwjr-30" value="config server 1" style="rounded=1;whiteSpace=wrap;html=1;" parent="1" vertex="1">
          <mxGeometry x="840" y="545" width="90" height="30" as="geometry" />
        </mxCell>
        <mxCell id="HpuJ5_qfLhVpuopJuwjr-31" value="shard 1 (replicaSet 0)" style="text;html=1;align=center;verticalAlign=middle;whiteSpace=wrap;rounded=0;" parent="1" vertex="1">
          <mxGeometry x="545" y="780" width="80" height="30" as="geometry" />
        </mxCell>
        <mxCell id="HpuJ5_qfLhVpuopJuwjr-32" value="mongodb&lt;div&gt;primary&amp;nbsp;&lt;/div&gt;" style="shape=cylinder3;whiteSpace=wrap;html=1;boundedLbl=1;backgroundOutline=1;size=15;" parent="1" vertex="1">
          <mxGeometry x="550" y="810" width="70" height="80" as="geometry" />
        </mxCell>
        <mxCell id="HpuJ5_qfLhVpuopJuwjr-36" value="&lt;b&gt;&lt;font style=&quot;font-size: 18px;&quot;&gt;Задание 1.2 - репликация&lt;/font&gt;&lt;/b&gt;" style="text;html=1;align=center;verticalAlign=middle;whiteSpace=wrap;rounded=0;" parent="1" vertex="1">
          <mxGeometry x="285" y="530" width="140" height="30" as="geometry" />
        </mxCell>
        <mxCell id="HpuJ5_qfLhVpuopJuwjr-40" value="mongodb&lt;div&gt;secondary&lt;/div&gt;" style="shape=cylinder3;whiteSpace=wrap;html=1;boundedLbl=1;backgroundOutline=1;size=15;" parent="1" vertex="1">
          <mxGeometry x="550" y="900" width="70" height="80" as="geometry" />
        </mxCell>
        <mxCell id="HpuJ5_qfLhVpuopJuwjr-41" value="mongodb&lt;div&gt;secondary&lt;/div&gt;" style="shape=cylinder3;whiteSpace=wrap;html=1;boundedLbl=1;backgroundOutline=1;size=15;" parent="1" vertex="1">
          <mxGeometry x="550" y="990" width="70" height="80" as="geometry" />
        </mxCell>
        <mxCell id="HpuJ5_qfLhVpuopJuwjr-42" value="" style="rounded=0;whiteSpace=wrap;html=1;" parent="1" vertex="1">
          <mxGeometry x="685" y="780" width="120" height="300" as="geometry" />
        </mxCell>
        <mxCell id="HpuJ5_qfLhVpuopJuwjr-43" value="shard 2 (replicaSet 1)" style="text;html=1;align=center;verticalAlign=middle;whiteSpace=wrap;rounded=0;" parent="1" vertex="1">
          <mxGeometry x="705" y="780" width="80" height="30" as="geometry" />
        </mxCell>
        <mxCell id="HpuJ5_qfLhVpuopJuwjr-44" value="mongodb&lt;div&gt;primary&amp;nbsp;&lt;/div&gt;" style="shape=cylinder3;whiteSpace=wrap;html=1;boundedLbl=1;backgroundOutline=1;size=15;" parent="1" vertex="1">
          <mxGeometry x="710" y="810" width="70" height="80" as="geometry" />
        </mxCell>
        <mxCell id="HpuJ5_qfLhVpuopJuwjr-45" value="mongodb&lt;div&gt;secondary&lt;/div&gt;" style="shape=cylinder3;whiteSpace=wrap;html=1;boundedLbl=1;backgroundOutline=1;size=15;" parent="1" vertex="1">
          <mxGeometry x="710" y="900" width="70" height="80" as="geometry" />
        </mxCell>
        <mxCell id="HpuJ5_qfLhVpuopJuwjr-46" value="mongodb&lt;div&gt;secondary&lt;/div&gt;" style="shape=cylinder3;whiteSpace=wrap;html=1;boundedLbl=1;backgroundOutline=1;size=15;" parent="1" vertex="1">
          <mxGeometry x="710" y="990" width="70" height="80" as="geometry" />
        </mxCell>
        <mxCell id="HpuJ5_qfLhVpuopJuwjr-47" value="" style="rounded=0;whiteSpace=wrap;html=1;" parent="1" vertex="1">
          <mxGeometry x="845" y="780" width="120" height="300" as="geometry" />
        </mxCell>
        <mxCell id="HpuJ5_qfLhVpuopJuwjr-48" value="shard 3 (replicaSet 2&lt;span style=&quot;background-color: transparent; color: light-dark(rgb(0, 0, 0), rgb(255, 255, 255));&quot;&gt;)&lt;/span&gt;" style="text;html=1;align=center;verticalAlign=middle;whiteSpace=wrap;rounded=0;" parent="1" vertex="1">
          <mxGeometry x="865" y="780" width="80" height="30" as="geometry" />
        </mxCell>
        <mxCell id="HpuJ5_qfLhVpuopJuwjr-49" value="mongodb&lt;div&gt;primary&amp;nbsp;&lt;/div&gt;" style="shape=cylinder3;whiteSpace=wrap;html=1;boundedLbl=1;backgroundOutline=1;size=15;" parent="1" vertex="1">
          <mxGeometry x="870" y="810" width="70" height="80" as="geometry" />
        </mxCell>
        <mxCell id="HpuJ5_qfLhVpuopJuwjr-50" value="mongodb&lt;div&gt;secondary&lt;/div&gt;" style="shape=cylinder3;whiteSpace=wrap;html=1;boundedLbl=1;backgroundOutline=1;size=15;" parent="1" vertex="1">
          <mxGeometry x="870" y="900" width="70" height="80" as="geometry" />
        </mxCell>
        <mxCell id="HpuJ5_qfLhVpuopJuwjr-51" value="mongodb&lt;div&gt;secondary&lt;/div&gt;" style="shape=cylinder3;whiteSpace=wrap;html=1;boundedLbl=1;backgroundOutline=1;size=15;" parent="1" vertex="1">
          <mxGeometry x="870" y="990" width="70" height="80" as="geometry" />
        </mxCell>
        <mxCell id="HpuJ5_qfLhVpuopJuwjr-71" value="&lt;b&gt;&lt;font style=&quot;font-size: 18px;&quot;&gt;Задание 1.3 - кэширование&lt;/font&gt;&lt;/b&gt;" style="text;html=1;align=center;verticalAlign=middle;whiteSpace=wrap;rounded=0;" parent="1" vertex="1">
          <mxGeometry x="325" y="1180" width="140" height="30" as="geometry" />
        </mxCell>
        <mxCell id="HpuJ5_qfLhVpuopJuwjr-87" style="edgeStyle=orthogonalEdgeStyle;rounded=0;orthogonalLoop=1;jettySize=auto;html=1;entryX=1.003;entryY=0.303;entryDx=0;entryDy=0;entryPerimeter=0;" parent="1" source="HpuJ5_qfLhVpuopJuwjr-3" target="HpuJ5_qfLhVpuopJuwjr-86" edge="1">
          <mxGeometry relative="1" as="geometry" />
        </mxCell>
        <mxCell id="HpuJ5_qfLhVpuopJuwjr-90" value="config server 2" style="rounded=1;whiteSpace=wrap;html=1;" parent="1" vertex="1">
          <mxGeometry x="840" y="585" width="90" height="30" as="geometry" />
        </mxCell>
        <mxCell id="HpuJ5_qfLhVpuopJuwjr-100" style="edgeStyle=orthogonalEdgeStyle;rounded=0;orthogonalLoop=1;jettySize=auto;html=1;entryX=0.5;entryY=0;entryDx=0;entryDy=0;" parent="1" source="HpuJ5_qfLhVpuopJuwjr-92" target="HpuJ5_qfLhVpuopJuwjr-31" edge="1">
          <mxGeometry relative="1" as="geometry" />
        </mxCell>
        <mxCell id="HpuJ5_qfLhVpuopJuwjr-101" style="edgeStyle=orthogonalEdgeStyle;rounded=0;orthogonalLoop=1;jettySize=auto;html=1;entryX=0.5;entryY=0;entryDx=0;entryDy=0;" parent="1" source="HpuJ5_qfLhVpuopJuwjr-92" target="HpuJ5_qfLhVpuopJuwjr-43" edge="1">
          <mxGeometry relative="1" as="geometry">
            <Array as="points">
              <mxPoint x="585" y="700" />
              <mxPoint x="745" y="700" />
            </Array>
          </mxGeometry>
        </mxCell>
        <mxCell id="HpuJ5_qfLhVpuopJuwjr-92" value="" style="rounded=0;whiteSpace=wrap;html=1;" parent="1" vertex="1">
          <mxGeometry x="525" y="555" width="120" height="100" as="geometry" />
        </mxCell>
        <mxCell id="HpuJ5_qfLhVpuopJuwjr-93" value="router 1" style="rounded=1;whiteSpace=wrap;html=1;" parent="1" vertex="1">
          <mxGeometry x="540" y="570" width="90" height="30" as="geometry" />
        </mxCell>
        <mxCell id="HpuJ5_qfLhVpuopJuwjr-94" value="router 2" style="rounded=1;whiteSpace=wrap;html=1;" parent="1" vertex="1">
          <mxGeometry x="540" y="610" width="90" height="30" as="geometry" />
        </mxCell>
        <mxCell id="HpuJ5_qfLhVpuopJuwjr-95" value="config server 3" style="rounded=1;whiteSpace=wrap;html=1;" parent="1" vertex="1">
          <mxGeometry x="840" y="625" width="90" height="30" as="geometry" />
        </mxCell>
        <mxCell id="HpuJ5_qfLhVpuopJuwjr-96" style="edgeStyle=orthogonalEdgeStyle;rounded=0;orthogonalLoop=1;jettySize=auto;html=1;entryX=1.002;entryY=0.305;entryDx=0;entryDy=0;entryPerimeter=0;exitX=1;exitY=0.5;exitDx=0;exitDy=0;" parent="1" source="HpuJ5_qfLhVpuopJuwjr-91" target="HpuJ5_qfLhVpuopJuwjr-55" edge="1">
          <mxGeometry relative="1" as="geometry">
            <Array as="points">
              <mxPoint x="945" y="640" />
              <mxPoint x="995" y="640" />
              <mxPoint x="995" y="864" />
            </Array>
          </mxGeometry>
        </mxCell>
        <mxCell id="HpuJ5_qfLhVpuopJuwjr-99" style="edgeStyle=orthogonalEdgeStyle;rounded=0;orthogonalLoop=1;jettySize=auto;html=1;entryX=0.042;entryY=0.531;entryDx=0;entryDy=0;entryPerimeter=0;exitX=1.003;exitY=0.484;exitDx=0;exitDy=0;exitPerimeter=0;" parent="1" source="HpuJ5_qfLhVpuopJuwjr-92" target="HpuJ5_qfLhVpuopJuwjr-91" edge="1">
          <mxGeometry relative="1" as="geometry">
            <mxPoint x="595" y="603.99" as="sourcePoint" />
            <mxPoint x="790" y="606" as="targetPoint" />
            <Array as="points" />
          </mxGeometry>
        </mxCell>
        <mxCell id="HpuJ5_qfLhVpuopJuwjr-102" style="edgeStyle=orthogonalEdgeStyle;rounded=0;orthogonalLoop=1;jettySize=auto;html=1;entryX=0.425;entryY=-0.033;entryDx=0;entryDy=0;entryPerimeter=0;" parent="1" source="HpuJ5_qfLhVpuopJuwjr-92" target="HpuJ5_qfLhVpuopJuwjr-48" edge="1">
          <mxGeometry relative="1" as="geometry">
            <Array as="points">
              <mxPoint x="585" y="700" />
              <mxPoint x="899" y="700" />
            </Array>
          </mxGeometry>
        </mxCell>
        <mxCell id="HpuJ5_qfLhVpuopJuwjr-103" value="" style="rounded=0;whiteSpace=wrap;html=1;" parent="1" vertex="1">
          <mxGeometry x="795" y="1241" width="120" height="130" as="geometry" />
        </mxCell>
        <mxCell id="HpuJ5_qfLhVpuopJuwjr-104" value="" style="rounded=0;whiteSpace=wrap;html=1;" parent="1" vertex="1">
          <mxGeometry x="485" y="1471" width="460" height="325" as="geometry" />
        </mxCell>
        <mxCell id="HpuJ5_qfLhVpuopJuwjr-105" value="" style="rounded=0;whiteSpace=wrap;html=1;" parent="1" vertex="1">
          <mxGeometry x="495" y="1486" width="120" height="300" as="geometry" />
        </mxCell>
        <mxCell id="HpuJ5_qfLhVpuopJuwjr-142" style="edgeStyle=orthogonalEdgeStyle;rounded=0;orthogonalLoop=1;jettySize=auto;html=1;entryX=0.5;entryY=0;entryDx=0;entryDy=0;" parent="1" source="HpuJ5_qfLhVpuopJuwjr-106" target="HpuJ5_qfLhVpuopJuwjr-139" edge="1">
          <mxGeometry relative="1" as="geometry" />
        </mxCell>
        <mxCell id="HpuJ5_qfLhVpuopJuwjr-106" value="pymongo-api&lt;div&gt;instance 1&lt;/div&gt;" style="rounded=1;whiteSpace=wrap;html=1;" parent="1" vertex="1">
          <mxGeometry x="195" y="1281" width="120" height="60" as="geometry" />
        </mxCell>
        <mxCell id="HpuJ5_qfLhVpuopJuwjr-107" style="edgeStyle=orthogonalEdgeStyle;rounded=0;orthogonalLoop=1;jettySize=auto;html=1;exitX=1;exitY=0.5;exitDx=0;exitDy=0;entryX=0;entryY=0.5;entryDx=0;entryDy=0;" parent="1" source="HpuJ5_qfLhVpuopJuwjr-106" target="HpuJ5_qfLhVpuopJuwjr-128" edge="1">
          <mxGeometry relative="1" as="geometry">
            <mxPoint x="395" y="1331" as="targetPoint" />
          </mxGeometry>
        </mxCell>
        <mxCell id="HpuJ5_qfLhVpuopJuwjr-109" value="config server 1" style="rounded=1;whiteSpace=wrap;html=1;" parent="1" vertex="1">
          <mxGeometry x="810" y="1251" width="90" height="30" as="geometry" />
        </mxCell>
        <mxCell id="HpuJ5_qfLhVpuopJuwjr-110" value="shard 1 (replicaSet 0)" style="text;html=1;align=center;verticalAlign=middle;whiteSpace=wrap;rounded=0;" parent="1" vertex="1">
          <mxGeometry x="515" y="1486" width="80" height="30" as="geometry" />
        </mxCell>
        <mxCell id="HpuJ5_qfLhVpuopJuwjr-111" value="mongodb&lt;div&gt;primary&amp;nbsp;&lt;/div&gt;" style="shape=cylinder3;whiteSpace=wrap;html=1;boundedLbl=1;backgroundOutline=1;size=15;" parent="1" vertex="1">
          <mxGeometry x="520" y="1516" width="70" height="80" as="geometry" />
        </mxCell>
        <mxCell id="HpuJ5_qfLhVpuopJuwjr-113" value="mongodb&lt;div&gt;secondary&lt;/div&gt;" style="shape=cylinder3;whiteSpace=wrap;html=1;boundedLbl=1;backgroundOutline=1;size=15;" parent="1" vertex="1">
          <mxGeometry x="520" y="1606" width="70" height="80" as="geometry" />
        </mxCell>
        <mxCell id="HpuJ5_qfLhVpuopJuwjr-114" value="mongodb&lt;div&gt;secondary&lt;/div&gt;" style="shape=cylinder3;whiteSpace=wrap;html=1;boundedLbl=1;backgroundOutline=1;size=15;" parent="1" vertex="1">
          <mxGeometry x="520" y="1696" width="70" height="80" as="geometry" />
        </mxCell>
        <mxCell id="HpuJ5_qfLhVpuopJuwjr-115" value="" style="rounded=0;whiteSpace=wrap;html=1;" parent="1" vertex="1">
          <mxGeometry x="655" y="1486" width="120" height="300" as="geometry" />
        </mxCell>
        <mxCell id="HpuJ5_qfLhVpuopJuwjr-116" value="shard 2 (replicaSet 1)" style="text;html=1;align=center;verticalAlign=middle;whiteSpace=wrap;rounded=0;" parent="1" vertex="1">
          <mxGeometry x="675" y="1486" width="80" height="30" as="geometry" />
        </mxCell>
        <mxCell id="HpuJ5_qfLhVpuopJuwjr-117" value="mongodb&lt;div&gt;primary&amp;nbsp;&lt;/div&gt;" style="shape=cylinder3;whiteSpace=wrap;html=1;boundedLbl=1;backgroundOutline=1;size=15;" parent="1" vertex="1">
          <mxGeometry x="680" y="1516" width="70" height="80" as="geometry" />
        </mxCell>
        <mxCell id="HpuJ5_qfLhVpuopJuwjr-118" value="mongodb&lt;div&gt;secondary&lt;/div&gt;" style="shape=cylinder3;whiteSpace=wrap;html=1;boundedLbl=1;backgroundOutline=1;size=15;" parent="1" vertex="1">
          <mxGeometry x="680" y="1606" width="70" height="80" as="geometry" />
        </mxCell>
        <mxCell id="HpuJ5_qfLhVpuopJuwjr-119" value="mongodb&lt;div&gt;secondary&lt;/div&gt;" style="shape=cylinder3;whiteSpace=wrap;html=1;boundedLbl=1;backgroundOutline=1;size=15;" parent="1" vertex="1">
          <mxGeometry x="680" y="1696" width="70" height="80" as="geometry" />
        </mxCell>
        <mxCell id="HpuJ5_qfLhVpuopJuwjr-120" value="" style="rounded=0;whiteSpace=wrap;html=1;" parent="1" vertex="1">
          <mxGeometry x="815" y="1486" width="120" height="300" as="geometry" />
        </mxCell>
        <mxCell id="HpuJ5_qfLhVpuopJuwjr-121" value="shard 3 (replicaSet 2&lt;span style=&quot;background-color: transparent; color: light-dark(rgb(0, 0, 0), rgb(255, 255, 255));&quot;&gt;)&lt;/span&gt;" style="text;html=1;align=center;verticalAlign=middle;whiteSpace=wrap;rounded=0;" parent="1" vertex="1">
          <mxGeometry x="835" y="1486" width="80" height="30" as="geometry" />
        </mxCell>
        <mxCell id="HpuJ5_qfLhVpuopJuwjr-122" value="mongodb&lt;div&gt;primary&amp;nbsp;&lt;/div&gt;" style="shape=cylinder3;whiteSpace=wrap;html=1;boundedLbl=1;backgroundOutline=1;size=15;" parent="1" vertex="1">
          <mxGeometry x="840" y="1516" width="70" height="80" as="geometry" />
        </mxCell>
        <mxCell id="HpuJ5_qfLhVpuopJuwjr-123" value="mongodb&lt;div&gt;secondary&lt;/div&gt;" style="shape=cylinder3;whiteSpace=wrap;html=1;boundedLbl=1;backgroundOutline=1;size=15;" parent="1" vertex="1">
          <mxGeometry x="840" y="1606" width="70" height="80" as="geometry" />
        </mxCell>
        <mxCell id="HpuJ5_qfLhVpuopJuwjr-124" value="mongodb&lt;div&gt;secondary&lt;/div&gt;" style="shape=cylinder3;whiteSpace=wrap;html=1;boundedLbl=1;backgroundOutline=1;size=15;" parent="1" vertex="1">
          <mxGeometry x="840" y="1696" width="70" height="80" as="geometry" />
        </mxCell>
        <mxCell id="HpuJ5_qfLhVpuopJuwjr-125" value="config server 2" style="rounded=1;whiteSpace=wrap;html=1;" parent="1" vertex="1">
          <mxGeometry x="810" y="1291" width="90" height="30" as="geometry" />
        </mxCell>
        <mxCell id="HpuJ5_qfLhVpuopJuwjr-126" style="edgeStyle=orthogonalEdgeStyle;rounded=0;orthogonalLoop=1;jettySize=auto;html=1;entryX=0.5;entryY=0;entryDx=0;entryDy=0;" parent="1" source="HpuJ5_qfLhVpuopJuwjr-128" target="HpuJ5_qfLhVpuopJuwjr-110" edge="1">
          <mxGeometry relative="1" as="geometry" />
        </mxCell>
        <mxCell id="HpuJ5_qfLhVpuopJuwjr-127" style="edgeStyle=orthogonalEdgeStyle;rounded=0;orthogonalLoop=1;jettySize=auto;html=1;entryX=0.5;entryY=0;entryDx=0;entryDy=0;" parent="1" source="HpuJ5_qfLhVpuopJuwjr-128" target="HpuJ5_qfLhVpuopJuwjr-116" edge="1">
          <mxGeometry relative="1" as="geometry">
            <Array as="points">
              <mxPoint x="555" y="1406" />
              <mxPoint x="715" y="1406" />
            </Array>
          </mxGeometry>
        </mxCell>
        <mxCell id="HpuJ5_qfLhVpuopJuwjr-128" value="" style="rounded=0;whiteSpace=wrap;html=1;" parent="1" vertex="1">
          <mxGeometry x="495" y="1261" width="120" height="100" as="geometry" />
        </mxCell>
        <mxCell id="HpuJ5_qfLhVpuopJuwjr-129" value="router 1" style="rounded=1;whiteSpace=wrap;html=1;" parent="1" vertex="1">
          <mxGeometry x="510" y="1276" width="90" height="30" as="geometry" />
        </mxCell>
        <mxCell id="HpuJ5_qfLhVpuopJuwjr-130" value="router 2" style="rounded=1;whiteSpace=wrap;html=1;" parent="1" vertex="1">
          <mxGeometry x="510" y="1316" width="90" height="30" as="geometry" />
        </mxCell>
        <mxCell id="HpuJ5_qfLhVpuopJuwjr-131" value="config server 3" style="rounded=1;whiteSpace=wrap;html=1;" parent="1" vertex="1">
          <mxGeometry x="810" y="1331" width="90" height="30" as="geometry" />
        </mxCell>
        <mxCell id="HpuJ5_qfLhVpuopJuwjr-132" style="edgeStyle=orthogonalEdgeStyle;rounded=0;orthogonalLoop=1;jettySize=auto;html=1;entryX=1.002;entryY=0.305;entryDx=0;entryDy=0;entryPerimeter=0;exitX=1;exitY=0.5;exitDx=0;exitDy=0;" parent="1" source="HpuJ5_qfLhVpuopJuwjr-103" target="HpuJ5_qfLhVpuopJuwjr-104" edge="1">
          <mxGeometry relative="1" as="geometry">
            <Array as="points">
              <mxPoint x="915" y="1346" />
              <mxPoint x="965" y="1346" />
              <mxPoint x="965" y="1570" />
            </Array>
          </mxGeometry>
        </mxCell>
        <mxCell id="HpuJ5_qfLhVpuopJuwjr-133" style="edgeStyle=orthogonalEdgeStyle;rounded=0;orthogonalLoop=1;jettySize=auto;html=1;entryX=0.042;entryY=0.531;entryDx=0;entryDy=0;entryPerimeter=0;exitX=1.003;exitY=0.484;exitDx=0;exitDy=0;exitPerimeter=0;" parent="1" source="HpuJ5_qfLhVpuopJuwjr-128" target="HpuJ5_qfLhVpuopJuwjr-103" edge="1">
          <mxGeometry relative="1" as="geometry">
            <mxPoint x="565" y="1309.99" as="sourcePoint" />
            <mxPoint x="760" y="1312" as="targetPoint" />
            <Array as="points" />
          </mxGeometry>
        </mxCell>
        <mxCell id="HpuJ5_qfLhVpuopJuwjr-134" style="edgeStyle=orthogonalEdgeStyle;rounded=0;orthogonalLoop=1;jettySize=auto;html=1;entryX=0.425;entryY=-0.033;entryDx=0;entryDy=0;entryPerimeter=0;" parent="1" source="HpuJ5_qfLhVpuopJuwjr-128" target="HpuJ5_qfLhVpuopJuwjr-121" edge="1">
          <mxGeometry relative="1" as="geometry">
            <Array as="points">
              <mxPoint x="555" y="1406" />
              <mxPoint x="869" y="1406" />
            </Array>
          </mxGeometry>
        </mxCell>
        <mxCell id="HpuJ5_qfLhVpuopJuwjr-147" style="edgeStyle=orthogonalEdgeStyle;rounded=0;orthogonalLoop=1;jettySize=auto;html=1;entryX=0.5;entryY=0;entryDx=0;entryDy=0;" parent="1" source="HpuJ5_qfLhVpuopJuwjr-136" target="HpuJ5_qfLhVpuopJuwjr-140" edge="1">
          <mxGeometry relative="1" as="geometry" />
        </mxCell>
        <mxCell id="HpuJ5_qfLhVpuopJuwjr-136" value="pymongo-api&lt;div&gt;instance 2&lt;/div&gt;" style="rounded=1;whiteSpace=wrap;html=1;" parent="1" vertex="1">
          <mxGeometry x="325" y="1346" width="120" height="60" as="geometry" />
        </mxCell>
        <mxCell id="HpuJ5_qfLhVpuopJuwjr-138" style="edgeStyle=orthogonalEdgeStyle;rounded=0;orthogonalLoop=1;jettySize=auto;html=1;entryX=0.033;entryY=0.63;entryDx=0;entryDy=0;entryPerimeter=0;" parent="1" source="HpuJ5_qfLhVpuopJuwjr-136" target="HpuJ5_qfLhVpuopJuwjr-128" edge="1">
          <mxGeometry relative="1" as="geometry" />
        </mxCell>
        <mxCell id="HpuJ5_qfLhVpuopJuwjr-139" value="Кластер Valkey (redis)&lt;div&gt;1&lt;/div&gt;" style="whiteSpace=wrap;html=1;aspect=fixed;" parent="1" vertex="1">
          <mxGeometry x="80" y="1470" width="80" height="80" as="geometry" />
        </mxCell>
        <mxCell id="HpuJ5_qfLhVpuopJuwjr-140" value="Кластер Valkey (redis)&lt;div&gt;2&lt;/div&gt;" style="whiteSpace=wrap;html=1;aspect=fixed;" parent="1" vertex="1">
          <mxGeometry x="180" y="1470" width="80" height="80" as="geometry" />
        </mxCell>
        <mxCell id="HpuJ5_qfLhVpuopJuwjr-141" value="Кластер Valkey (redis)&lt;div&gt;3&lt;/div&gt;" style="whiteSpace=wrap;html=1;aspect=fixed;" parent="1" vertex="1">
          <mxGeometry x="290" y="1471" width="80" height="80" as="geometry" />
        </mxCell>
        <mxCell id="HpuJ5_qfLhVpuopJuwjr-145" value="" style="endArrow=none;html=1;rounded=0;exitX=0.5;exitY=0;exitDx=0;exitDy=0;" parent="1" source="HpuJ5_qfLhVpuopJuwjr-141" edge="1">
          <mxGeometry width="50" height="50" relative="1" as="geometry">
            <mxPoint x="540" y="1450" as="sourcePoint" />
            <mxPoint x="330" y="1440" as="targetPoint" />
          </mxGeometry>
        </mxCell>
        <mxCell id="HpuJ5_qfLhVpuopJuwjr-146" value="" style="endArrow=none;html=1;rounded=0;" parent="1" edge="1">
          <mxGeometry width="50" height="50" relative="1" as="geometry">
            <mxPoint x="120" y="1440" as="sourcePoint" />
            <mxPoint x="330" y="1440" as="targetPoint" />
          </mxGeometry>
        </mxCell>
        <mxCell id="HpuJ5_qfLhVpuopJuwjr-149" value="Распределенный кэш" style="text;html=1;align=center;verticalAlign=middle;whiteSpace=wrap;rounded=0;" parent="1" vertex="1">
          <mxGeometry x="80" y="1560" width="270" height="30" as="geometry" />
        </mxCell>
        <mxCell id="8gVQfP1lefxVkMZpwH75-1" value="hashed sharding" style="text;html=1;align=center;verticalAlign=middle;resizable=0;points=[];autosize=1;strokeColor=none;fillColor=none;" vertex="1" parent="1">
          <mxGeometry x="615" y="455" width="110" height="30" as="geometry" />
        </mxCell>
      </root>
    </mxGraphModel>
  </diagram>
</mxfile>
